<svg xmlns="http://www.w3.org/2000/svg" viewBox="0 0 160.63 53.37"><defs><style>.cls-1{fill:#fff}</style></defs><g id="Calque_2" data-name="Calque 2"><g id="Calque_1-2" data-name="Calque 1"><path class="cls-1" d="M18.19 31.27h25.28c-.41 8.31-7.89 13.2-16.37 13.41h-.41a18.19 18.19 0 01-9.62-2.83 17.89 17.89 0 01-8.69-15.2A18.09 18.09 0 0120.63 9.73l.56-.19c.21-.07.41-.14.61-.19.47-.14.95-.26 1.43-.36h.14A19.42 19.42 0 0127 8.6h.1a16.83 16.83 0 0114.6 8.54h9.8A26.32 26.32 0 0026.59.06a26.65 26.65 0 10.21 53.29c14.8 0 26.37-10.42 26.37-24.49a37.3 37.3 0 00-.31-4.86H23.35zM121.42 24h20.17c-.41-8.32-7.91-15-16.41-15.25h-.41a18.23 18.23 0 00-9.64 2.83 17.86 17.86 0 00-8.71 15.22 18.08 18.08 0 0012.28 16.87l.56.2c.2.06.4.13.61.18.47.14.95.26 1.43.36h.14a18.8 18.8 0 003.64.36h.1a16.91 16.91 0 0014.64-8.55h9.82a26.41 26.41 0 01-25 17.1 26.65 26.65 0 1126.65-27 37.3 37.3 0 01-.31 4.83h-34.73zM80 22.3l-5.34-1.18c-4.88-.91-9.87-1.84-9.87-6.58 0-4.43 5.13-6.75 10.18-6.75 8.11 0 11.6 4.73 13.5 7.49l5.35-7.52C89 2.55 83 0 75.49 0 63.37 0 55.54 6.14 55.54 15.63c0 7.67 5.27 11 8.42 12.23a38.21 38.21 0 005.56 1.6l.88.21L76.61 31a39.32 39.32 0 016 1.59c2 .83 4.26 2.18 4.26 5.58 0 2-.81 4.76-4.67 6.35a15.35 15.35 0 01-5.73.91c-10.32 0-14.47-5.18-16.06-7.53l-5.46 7.67a23.85 23.85 0 0010.9 6.65 34 34 0 009.08 1.15c15.84 0 21.49-8.34 21.49-16.15C96.39 27.11 88.1 24 80 22.3"/></g></g></svg>